<?xml version="1.0" encoding="UTF-8" standalone="no"?>
<!-- Created with Inkscape (http://www.inkscape.org/) -->

<svg
   xmlns:dc="http://purl.org/dc/elements/1.1/"
   xmlns:cc="http://creativecommons.org/ns#"
   xmlns:rdf="http://www.w3.org/1999/02/22-rdf-syntax-ns#"
   xmlns:svg="http://www.w3.org/2000/svg"
   xmlns="http://www.w3.org/2000/svg"
   xmlns:sodipodi="http://sodipodi.sourceforge.net/DTD/sodipodi-0.dtd"
   xmlns:inkscape="http://www.inkscape.org/namespaces/inkscape"
   version="1.1"
   id="svg2"
   width="52.16"
   height="54.080002"
   viewBox="0 0 52.16 54.080002"
   sodipodi:docname="logo_ian.svg"
   inkscape:version="0.92.2 2405546, 2018-03-11">
  <metadata
     id="metadata8">
    <rdf:RDF>
      <cc:Work
         rdf:about="">
        <dc:format>image/svg+xml</dc:format>
        <dc:type
           rdf:resource="http://purl.org/dc/dcmitype/StillImage" />
        <dc:title />
      </cc:Work>
    </rdf:RDF>
  </metadata>
  <defs
     id="defs6" />
  <sodipodi:namedview
     pagecolor="#ffffff"
     bordercolor="#666666"
     borderopacity="1"
     objecttolerance="10"
     gridtolerance="10"
     guidetolerance="10"
     inkscape:pageopacity="0"
     inkscape:pageshadow="2"
     inkscape:window-width="1920"
     inkscape:window-height="1019"
     id="namedview4"
     showgrid="false"
     inkscape:zoom="6.1714939"
     inkscape:cx="-11.863628"
     inkscape:cy="30.899288"
     inkscape:window-x="0"
     inkscape:window-y="27"
     inkscape:window-maximized="1"
     inkscape:current-layer="svg2" />
  <g
     id="g821">
    <path
       style="fill:#fbafcb;stroke-width:0.31999999"
       d="M 42.72391,49.08348 C 41.670061,48.828719 39.76159,48.103327 38.48287,47.471496 L 36.15792,46.322719 34.15896,46.81837 C 28.404698,48.24517 22.161978,48.341061 18.793372,47.054392 17.643889,46.615339 16.093386,45.607307 14.686329,44.384274 12.762269,42.711851 12.216746,41.98949 11.020238,39.529745 8.4798976,34.307393 7.8567309,30.28974 8.3930371,22.591765 8.4741901,21.426924 8.4051725,21.316309 7.36,20.93611 6.744,20.712029 5.196,20.517735 3.92,20.504346 2.1625395,20.485904 1.6,20.371971 1.6,20.034469 c 0,-0.742447 3.7251443,-3.94851 6.1761302,-5.315515 1.2671284,-0.706725 3.6290898,-1.704021 5.2488028,-2.216214 1.619713,-0.512193 3.610757,-1.38936 4.424543,-1.949259 8.612911,-5.9258392 20.455295,-5.989414 24.485682,-0.131449 0.883312,1.28385 1.013143,1.350327 3.302061,1.690762 2.480528,0.368933 5.19433,1.16295 5.882781,1.721212 0.62591,0.507548 0.470445,1.67002 -0.32,2.392783 -1.256102,1.148548 -2.850061,1.765995 -6.414675,2.484837 l -3.468055,0.69937 -0.134768,2.098433 c -0.09548,1.486641 0.06274,2.831985 0.542672,4.614502 1.132544,4.206366 1.131872,4.467397 -0.01306,5.059464 C 40.59752,31.552925 40.32,31.923892 40.32,32.509569 c 0,0.447226 -0.34423,1.271527 -0.764957,1.831783 -0.420729,0.560256 -0.869357,1.522649 -0.996953,2.138649 -0.372839,1.799962 -0.603604,1.92 -3.691101,1.92 -3.335682,0 -3.702961,0.111936 -4.327042,1.318778 -0.397823,0.769306 -0.676532,0.921223 -1.690084,0.921223 -3.36814,0 -7.038767,-2.092148 -8.476409,-4.831303 -0.810174,-1.543632 -0.894632,-1.985629 -0.788915,-4.128698 0.185953,-3.769597 1.912539,-6.440509 5.375461,-8.315472 2.157199,-1.167993 1.835348,-1.274771 -0.433527,-0.143828 -2.378113,1.185393 -4.559882,3.449998 -5.367293,5.571075 -0.843528,2.215957 -0.896759,5.388289 -0.122336,7.290702 0.698951,1.717011 2.961,3.757082 5.724211,5.162487 1.851332,0.941609 2.530024,1.105721 5.136679,1.242064 1.651924,0.08641 3.388093,0.06058 3.858154,-0.0574 0.470061,-0.117977 1.492019,-0.906422 2.271021,-1.752099 1.621747,-1.760554 4.017545,-3.180605 5.583155,-3.309277 l 1.073773,-0.08825 0.355344,2.24 c 0.595424,3.753367 1.679283,5.085517 6.255245,7.688206 2.587443,1.47167 2.940483,1.891532 1.838659,2.186681 -1.316266,0.352595 -6.448672,0.162531 -8.409175,-0.311408 z"
       id="path835"
       inkscape:connector-curvature="0" />
    <path
       style="fill:#fb8fb6;stroke-width:0.31999999"
       d="m 44.404285,48.949503 c -2.140371,-0.360404 -4.632592,-1.211348 -6.385002,-2.180096 -1.441715,-0.796999 -1.573811,-0.813383 -3.36,-0.41673 -10.434339,2.317104 -15.7501,1.602304 -20.290395,-2.728403 C 10.297259,39.7406 7.767184,31.355512 8.6402003,24.638459 8.93256,22.389023 8.9311968,21.630872 8.6341491,21.272951 8.0891459,20.616262 6.2254176,20.163863 4.0565363,20.161785 1.6449566,20.159476 1.697454,19.635918 4.3219965,17.514339 c 2.7140304,-2.193917 4.8673993,-3.356061 8.4492415,-4.559941 1.714451,-0.576238 4.186288,-1.71363 5.492973,-2.527538 4.742678,-2.9541202 9.258041,-4.2047718 14.303731,-3.9618047 3.925325,0.1890176 6.508176,1.2306896 8.410688,3.392059 0.693754,0.7881457 1.26137,1.5413117 1.26137,1.6737027 0,0.355926 0.749133,0.584211 3.137421,0.956072 2.657593,0.413793 5.014921,1.16552 5.50439,1.755293 1.007565,1.214042 -1.22943,2.983816 -4.825789,3.817868 -1.149337,0.266548 -4.937968,0.928181 -8.419184,1.470294 -9.945588,1.548779 -13.703199,2.861 -16.543857,5.777396 -2.954041,3.032802 -3.821157,7.746888 -2.079699,11.3063 1.030348,2.105955 2.434307,3.347645 5.466718,4.83487 2.564773,1.257876 5.818185,1.87154 8.227654,1.551914 1.427453,-0.18936 1.910506,-0.470298 3.817092,-2.219968 2.171638,-1.992912 4.604486,-3.269978 5.543187,-2.909763 0.318915,0.122377 0.492067,0.601561 0.492067,1.36174 0,3.148001 1.697523,5.531857 5.558006,7.805191 1.343098,0.790912 2.441994,1.530119 2.441994,1.642679 0,0.595619 -3.346858,0.741766 -6.155715,0.2688 z m -16.811888,-8.68715 c -4.806532,-0.738457 -7.833729,-3.985052 -7.831349,-8.398927 0.0027,-5.023575 3.573988,-8.432268 10.539546,-10.059726 3.545345,-0.828347 8.218766,-1.643699 9.421323,-1.643699 H 40.64 v 2.326432 c 0,1.343259 0.27047,3.302456 0.64,4.635949 0.843094,3.042405 0.816854,3.478002 -0.24,3.984128 -0.608739,0.291523 -0.889776,0.678537 -0.911715,1.255507 -0.01744,0.458743 -0.413443,1.334547 -0.88,1.946237 C 38.781728,34.91994 38.4,35.802821 38.4,36.270206 c 0,0.467389 -0.275482,1.125277 -0.612179,1.461975 -0.513392,0.513392 -0.921373,0.58414 -2.528263,0.438432 -2.817001,-0.255437 -4.165532,0.08236 -4.805563,1.203756 -0.665889,1.166704 -0.792247,1.205914 -2.861598,0.887984 z"
       id="path833"
       inkscape:connector-curvature="0" />
    <path
       style="fill:#fa5691;stroke-width:0.31999999"
       d="M 44.96,48.736783 C 43.206899,48.504267 40.536762,47.637099 38.665856,46.692671 36.470669,45.584542 36.319414,45.576914 32.900272,46.401829 27.23382,47.768936 21.162418,47.563058 17.864701,45.891979 15.597678,44.743192 12.752139,41.757963 11.600266,39.320021 9.2826787,34.414836 8.3347325,29.24746 8.918056,24.698946 9.1205251,23.120176 9.2010429,21.606585 9.096984,21.335413 8.8362282,20.655894 6.2861114,19.840001 4.4229955,19.840001 c -1.9806933,0 -2.0065532,-0.503054 -0.1059206,-2.060479 2.3676371,-1.940101 5.5889648,-3.662622 8.6464841,-4.623482 1.585958,-0.498406 3.73779,-1.452637 4.781851,-2.120514 4.655202,-2.9778972 8.895829,-4.3155258 13.681327,-4.3155258 4.143116,0 6.813493,0.8172823 8.679525,2.6564129 0.749783,0.7389729 1.576327,1.6827439 1.836765,2.0972689 0.378675,0.602712 0.959895,0.838259 2.901597,1.175911 4.875968,0.847908 6.271085,1.46364 5.908038,2.607501 -0.504428,1.589312 -4.820534,2.888281 -13.632662,4.102865 -8.313341,1.145835 -13.343798,2.913364 -16.0806,5.650165 -1.941527,1.941528 -2.850546,3.950395 -3.050192,6.74071 -0.301807,4.218156 1.392105,7.245516 5.266426,9.41216 2.662438,1.488921 4.720551,2.054236 7.636836,2.09767 3.03618,0.04522 4.33665,-0.43977 5.726135,-2.13545 1.189872,-1.45208 4.298109,-3.253091 5.089904,-2.949251 0.25992,0.09974 0.509168,0.875286 0.61696,1.919686 0.09947,0.963789 0.395149,2.164545 0.657059,2.668346 0.706621,1.359239 2.687878,3.215242 4.80528,4.501498 1.36031,0.826342 1.755965,1.213344 1.443155,1.411587 -0.430035,0.272535 -2.453065,0.300813 -4.270963,0.0597 z m -17.367603,-8.47443 c -4.806532,-0.738457 -7.833729,-3.985052 -7.831349,-8.398927 0.0027,-5.023575 3.573988,-8.432268 10.539546,-10.059726 3.545345,-0.828347 8.218766,-1.643699 9.421323,-1.643699 H 40.64 v 2.326432 c 0,1.343259 0.27047,3.302456 0.64,4.635949 0.843094,3.042405 0.816854,3.478002 -0.24,3.984128 -0.608739,0.291523 -0.889776,0.678537 -0.911715,1.255507 -0.01744,0.458743 -0.413443,1.334547 -0.88,1.946237 C 38.781728,34.91994 38.4,35.802821 38.4,36.270206 c 0,0.467389 -0.275482,1.125277 -0.612179,1.461975 -0.513392,0.513392 -0.921373,0.58414 -2.528263,0.438432 -2.817001,-0.255437 -4.165532,0.08236 -4.805563,1.203756 -0.665889,1.166704 -0.792247,1.205914 -2.861598,0.887984 z"
       id="path831"
       inkscape:connector-curvature="0" />
    <path
       style="fill:#9f9d99;stroke-width:0.31999999"
       d="M 44.16,48.09893 C 42.787402,47.86916 40.224643,46.983871 38.650637,46.195752 36.82472,45.281499 36.149542,45.26557 32.465018,46.049819 26.097219,47.405199 21.276816,47.178213 17.92,45.364917 15.263785,43.930075 12.521327,40.685506 11.254033,37.478494 9.5934125,33.276132 9.169304,30.59356 9.3668304,25.541552 9.5158842,21.729288 9.4696138,21.104106 9.0090106,20.706865 8.2482048,20.050719 6.4962877,19.520001 5.0911341,19.520001 c -0.6673498,0 -1.2923866,-0.127863 -1.3889703,-0.284139 -0.20164,-0.32626 1.7835594,-1.988145 4.1778781,-3.497459 0.9020231,-0.56861 3.1013391,-1.525953 4.8873701,-2.127428 1.78603,-0.601475 4.072011,-1.589749 5.079958,-2.196165 5.020389,-3.0204442 7.914957,-4.0166337 12.424374,-4.2759521 5.051827,-0.2905101 7.99264,0.6245145 10.149453,3.1579691 0.647648,0.760746 1.378157,1.619506 1.623353,1.908357 0.249536,0.293959 1.200804,0.622771 2.160634,0.746836 2.27617,0.294212 5.456157,1.103663 5.954816,1.515771 0.639914,0.528847 0.481168,0.832943 -0.885043,1.695394 -1.567309,0.989398 -5.055411,1.83565 -11.194957,2.71602 -10.058841,1.44237 -14.655061,3.079484 -17.555522,6.253051 -2.241187,2.452216 -3.027482,4.655397 -2.85075,7.987745 0.155444,2.930964 0.781996,4.407648 2.716172,6.401591 4.294357,4.427056 13.983108,5.743187 16.295758,2.213635 0.59736,-0.911686 2.760272,-2.48409 3.914294,-2.845629 0.910883,-0.285369 1.30809,0.200154 1.315149,1.607575 0.0026,0.537443 0.376131,1.722137 0.829862,2.632653 0.756503,1.518102 1.405501,2.157299 4.686701,4.615923 0.717923,0.537946 0.705459,0.545328 -0.871664,0.516422 -0.88,-0.01613 -1.96,-0.08959 -2.4,-0.163241 z M 27.592397,40.262353 c -4.806532,-0.738457 -7.833729,-3.985052 -7.831349,-8.398927 0.0027,-5.023575 3.573988,-8.432268 10.539546,-10.059726 3.545345,-0.828347 8.218766,-1.643699 9.421323,-1.643699 H 40.64 v 2.326432 c 0,1.343259 0.27047,3.302456 0.64,4.635949 0.843094,3.042405 0.816854,3.478002 -0.24,3.984128 -0.608739,0.291523 -0.889776,0.678537 -0.911715,1.255507 -0.01744,0.458743 -0.413443,1.334547 -0.88,1.946237 C 38.781728,34.91994 38.4,35.802821 38.4,36.270206 c 0,0.467389 -0.275482,1.125277 -0.612179,1.461975 -0.513392,0.513392 -0.921373,0.58414 -2.528263,0.438432 -2.817001,-0.255437 -4.165532,0.08236 -4.805563,1.203756 -0.665889,1.166704 -0.792247,1.205914 -2.861598,0.887984 z"
       id="path829"
       inkscape:connector-curvature="0" />
    <path
       style="fill:#fa337b;stroke-width:0.31999999"
       d="M 44.16,48.09893 C 42.787402,47.86916 40.224643,46.983871 38.650637,46.195752 36.82472,45.281499 36.149542,45.26557 32.465018,46.049819 26.097219,47.405199 21.276816,47.178213 17.92,45.364917 15.263785,43.930075 12.521327,40.685506 11.254033,37.478494 9.5934125,33.276132 9.169304,30.59356 9.3668304,25.541552 9.5158842,21.729288 9.4696138,21.104106 9.0090106,20.706865 8.2482048,20.050719 6.4962877,19.520001 5.0911341,19.520001 c -0.6673498,0 -1.2923866,-0.127863 -1.3889703,-0.284139 -0.20164,-0.32626 1.7835594,-1.988145 4.1778781,-3.497459 0.9020231,-0.56861 3.1013391,-1.525953 4.8873701,-2.127428 1.78603,-0.601475 4.072011,-1.589749 5.079958,-2.196165 5.020389,-3.0204442 7.914957,-4.0166337 12.424374,-4.2759521 5.051827,-0.2905101 7.99264,0.6245145 10.149453,3.1579691 0.647648,0.760746 1.378157,1.619506 1.623353,1.908357 0.249536,0.293959 1.200804,0.622771 2.160634,0.746836 2.27617,0.294212 5.456157,1.103663 5.954816,1.515771 0.639914,0.528847 0.481168,0.832943 -0.885043,1.695394 -1.567309,0.989398 -5.055411,1.83565 -11.194957,2.71602 -10.058841,1.44237 -14.655061,3.079484 -17.555522,6.253051 -2.241187,2.452216 -3.027482,4.655397 -2.85075,7.987745 0.155444,2.930964 0.781996,4.407648 2.716172,6.401591 4.294357,4.427056 13.983108,5.743187 16.295758,2.213635 0.59736,-0.911686 2.760272,-2.48409 3.914294,-2.845629 0.910883,-0.285369 1.30809,0.200154 1.315149,1.607575 0.0026,0.537443 0.376131,1.722137 0.829862,2.632653 0.756503,1.518102 1.405501,2.157299 4.686701,4.615923 0.717923,0.537946 0.705459,0.545328 -0.871664,0.516422 -0.88,-0.01613 -1.96,-0.08959 -2.4,-0.163241 z M 26.020572,39.405691 c -3.706181,-1.280672 -5.422615,-3.254755 -5.771819,-6.638221 -0.233933,-2.266594 0.378395,-4.331506 1.828,-6.164442 1.423517,-1.799949 3.451142,-2.946738 7.058306,-3.992052 2.690734,-0.779744 10.535392,-2.247191 10.76824,-2.014342 0.06626,0.06626 0.171184,1.255126 0.233159,2.641921 0.06636,1.484881 0.390352,3.298463 0.788115,4.411542 0.862803,2.414447 0.856387,2.484629 -0.286595,3.135021 C 39.951773,31.175588 39.68,31.571044 39.68,32.17907 c 0,0.466858 -0.420669,1.379971 -0.934822,2.029142 -0.51714,0.652941 -0.981815,1.674359 -1.04,2.286049 L 37.6,37.600001 l -3.232714,0.16 c -3.308631,0.163757 -4.081048,0.446087 -4.456458,1.6289 -0.249578,0.786348 -1.645764,0.792377 -3.890256,0.0168 z"
       id="path827"
       inkscape:connector-curvature="0" />
    <path
       style="fill:#85827c;stroke-width:0.31999999"
       d="m 26.020572,39.405691 c -3.706181,-1.280672 -5.422615,-3.254755 -5.771819,-6.638221 -0.233933,-2.266594 0.378395,-4.331506 1.828,-6.164442 1.423517,-1.799949 3.451142,-2.946738 7.058306,-3.992052 2.690734,-0.779744 10.535392,-2.247191 10.76824,-2.014342 0.06626,0.06626 0.171184,1.255126 0.233159,2.641921 0.06636,1.484881 0.390352,3.298463 0.788115,4.411542 0.862803,2.414447 0.856387,2.484629 -0.286595,3.135021 C 39.951773,31.175588 39.68,31.571044 39.68,32.17907 c 0,0.466858 -0.420669,1.379971 -0.934822,2.029142 -0.51714,0.652941 -0.981815,1.674359 -1.04,2.286049 L 37.6,37.600001 l -3.232714,0.16 c -3.308631,0.163757 -4.081048,0.446087 -4.456458,1.6289 -0.249578,0.786348 -1.645764,0.792377 -3.890256,0.0168 z"
       id="path825"
       inkscape:connector-curvature="0" />
    <path
       style="fill:#807d77;stroke-width:0.31999999"
       d="M 25.985587,39.073848 C 24.014232,38.392933 22.17117,37.000859 21.321973,35.5514 20.992041,34.988251 20.652087,33.635435 20.563652,32.533729 20.245133,28.56565 22.724287,25.222852 27.222159,23.555649 29.229187,22.811713 34.780022,21.563568 38.56,21.006253 l 1.28,-0.188722 -0.108922,1.562157 c -0.09258,1.327701 0.676151,5.247468 1.398048,7.128702 0.136695,0.356221 -0.08035,0.646915 -0.705868,0.945367 -0.62362,0.297548 -0.935712,0.714148 -1.008087,1.345656 -0.05766,0.503075 -0.525657,1.495619 -1.04,2.205647 C 37.784627,34.820283 37.44,35.691073 37.44,36.368014 v 1.071987 h -2.864944 c -3.154593,0 -4.218106,0.324589 -4.833973,1.475348 -0.498498,0.931452 -1.40671,0.969782 -3.755496,0.158499 z"
       id="path823"
       inkscape:connector-curvature="0" />
  </g>
  <path
     style="fill:#000000;stroke-width:0.31999999"
     d=""
     id="path817"
     inkscape:connector-curvature="0" />
</svg>
